<?xml version= "1.0" encoding= "utf-8" ?>
<svg>
    <symbol id="arrow-left" width="13" height="23" viewBox="0 0 13 23" xmlns="http://www.w3.org/2000/svg">
    <path d="M10.9999 23C10.8683 23.0008 10.7378 22.9755 10.616 22.9258C10.4941 22.876 10.3833 22.8027 10.2899 22.71L1.70988 14.12C1.14808 13.5575 0.83252 12.795 0.83252 12C0.83252 11.205 1.14808 10.4425 1.70988 9.88L10.2899 1.29C10.4782 1.1017 10.7336 0.995911 10.9999 0.995911C11.2662 0.995911 11.5216 1.1017 11.7099 1.29C11.8982 1.47831 12.004 1.7337 12.004 2C12.004 2.2663 11.8982 2.5217 11.7099 2.71L3.11988 11.29C3.02615 11.383 2.95176 11.4936 2.90099 11.6154C2.85022 11.7373 2.82408 11.868 2.82408 12C2.82408 12.132 2.85022 12.2627 2.90099 12.3846C2.95176 12.5064 3.02615 12.617 3.11988 12.71L11.7099 21.29C11.8036 21.383 11.878 21.4936 11.9288 21.6154C11.9795 21.7373 12.0057 21.868 12.0057 22C12.0057 22.132 11.9795 22.2627 11.9288 22.3846C11.878 22.5064 11.8036 22.617 11.7099 22.71C11.6164 22.8027 11.5056 22.876 11.3838 22.9258C11.2619 22.9755 11.1315 23.0008 10.9999 23Z"/>
    </symbol>

    <symbol id="arrow-right" width="13" height="23" viewBox="0 0 13 23"  xmlns="http://www.w3.org/2000/svg">
    <path d="M2.00012 -1.90735e-06C2.13173 -0.000762939 2.26219 0.0244617 2.38403 0.0742264C2.50587 0.123991 2.61668 0.197317 2.71012 0.289999L11.2901 8.88C11.8519 9.4425 12.1675 10.205 12.1675 11C12.1675 11.795 11.8519 12.5575 11.2901 13.12L2.71012 21.71C2.52182 21.8983 2.26642 22.0041 2.00012 22.0041C1.73382 22.0041 1.47843 21.8983 1.29012 21.71C1.10182 21.5217 0.996029 21.2663 0.996029 21C0.996029 20.7337 1.10182 20.4783 1.29012 20.29L9.88012 11.71C9.97385 11.617 10.0482 11.5064 10.099 11.3846C10.1498 11.2627 10.1759 11.132 10.1759 11C10.1759 10.868 10.1498 10.7373 10.099 10.6154C10.0482 10.4936 9.97385 10.383 9.88012 10.29L1.29012 1.71C1.19639 1.61703 1.122 1.50643 1.07123 1.38457C1.02046 1.26272 0.994322 1.13201 0.994322 0.999998C0.994322 0.867987 1.02046 0.73728 1.07123 0.615421C1.122 0.493563 1.19639 0.382961 1.29012 0.289999C1.38356 0.197317 1.49438 0.123991 1.61621 0.0742264C1.73805 0.0244617 1.86851 -0.000762939 2.00012 -1.90735e-06Z"/>
    </symbol>

    <symbol id="completion" width="24" height="18" viewBox="0 0 24 18"  xmlns="http://www.w3.org/2000/svg">
    <path d="M21.6776 2.31148e-07C21.3729 -0.00013596 21.0711 0.0599116 20.7895 0.176697C20.508 0.293483 20.2524 0.464707 20.0372 0.680545L9.29188 11.4244L3.96704 6.09913C3.75158 5.88281 3.49558 5.71111 3.21369 5.59385C2.9318 5.47659 2.62954 5.41608 2.32424 5.41577C2.01893 5.41547 1.71656 5.47538 1.43443 5.59208C1.1523 5.70877 0.895959 5.87996 0.680073 6.09585C0.464188 6.31173 0.292997 6.56808 0.176302 6.8502C0.059606 7.13233 -0.000303888 7.4347 1.15907e-06 7.74001C0.000306206 8.04532 0.0608202 8.34757 0.178079 8.62946C0.295339 8.91136 0.467041 9.16736 0.683358 9.38281L7.65004 16.35C7.86559 16.5657 8.12154 16.7368 8.40325 16.8536C8.68497 16.9703 8.98693 17.0304 9.29188 17.0304C9.59684 17.0304 9.8988 16.9703 10.1805 16.8536C10.4622 16.7368 10.7182 16.5657 10.9337 16.35L23.3195 3.96422C23.6443 3.63952 23.8656 3.22576 23.9553 2.77527C24.045 2.32478 23.9991 1.85782 23.8233 1.43345C23.6475 1.00908 23.3499 0.646371 22.9679 0.391212C22.586 0.136054 22.1369 -9.12255e-05 21.6776 2.31148e-07Z" fill="white"/>
    </symbol>

    <symbol id="completion-mini" width="16" height="12" viewBox="0 0 16 12" fill="none" xmlns="http://www.w3.org/2000/svg">
    <path d="M14.4517 1.54099e-07C14.2486 -9.06401e-05 14.0474 0.0399411 13.8597 0.117798C13.672 0.195655 13.5016 0.309805 13.3581 0.453697L6.19459 7.6163L2.64469 4.06609C2.50105 3.92188 2.33039 3.80741 2.14246 3.72924C1.95453 3.65106 1.75303 3.61072 1.54949 3.61052C1.34595 3.61031 1.14437 3.65025 0.956286 3.72805C0.768201 3.80585 0.597306 3.91997 0.453382 4.0639C0.309458 4.20782 0.195332 4.37872 0.117534 4.5668C0.0397373 4.75489 -0.000202592 4.95647 7.72715e-07 5.16001C0.000204137 5.36355 0.0405468 5.56505 0.11872 5.75297C0.196892 5.9409 0.311361 6.11157 0.455572 6.25521L5.10003 10.9C5.24373 11.0438 5.41436 11.1579 5.60217 11.2357C5.78998 11.3135 5.99129 11.3536 6.19459 11.3536C6.39789 11.3536 6.5992 11.3135 6.78701 11.2357C6.97482 11.1579 7.14545 11.0438 7.28915 10.9L15.5463 2.64282C15.7629 2.42635 15.9104 2.1505 15.9702 1.85018C16.03 1.54986 15.9994 1.23855 15.8822 0.955632C15.765 0.672718 15.5666 0.430914 15.3119 0.260808C15.0573 0.0907025 14.758 -6.0817e-05 14.4517 1.54099e-07Z" fill="white"/>
    </symbol>


    <symbol id="cross" width="24" height="24" viewBox="0 0 24 24"  xmlns="http://www.w3.org/2000/svg">
    <path d="M13.5374 11.9981L23.6775 1.86893C23.8828 1.66362 23.9981 1.38515 23.9981 1.0948C23.9981 0.804438 23.8828 0.525972 23.6775 0.320658C23.4722 0.115344 23.1937 0 22.9033 0C22.613 0 22.3345 0.115344 22.1292 0.320658L12 10.4608L1.87079 0.320658C1.66548 0.115344 1.38701 -2.16333e-09 1.09666 0C0.806299 2.16333e-09 0.527833 0.115344 0.322519 0.320658C0.117205 0.525972 0.00186077 0.804438 0.00186076 1.0948C0.00186076 1.38515 0.117205 1.66362 0.322519 1.86893L10.4626 11.9981L0.322519 22.1273C0.220324 22.2287 0.139209 22.3493 0.0838545 22.4822C0.0284997 22.615 0 22.7575 0 22.9015C0 23.0454 0.0284997 23.1879 0.0838545 23.3208C0.139209 23.4537 0.220324 23.5743 0.322519 23.6756C0.42388 23.7778 0.544472 23.8589 0.677339 23.9143C0.810206 23.9696 0.952719 23.9981 1.09666 23.9981C1.24059 23.9981 1.38311 23.9696 1.51597 23.9143C1.64884 23.8589 1.76943 23.7778 1.87079 23.6756L12 13.5355L22.1292 23.6756C22.2306 23.7778 22.3512 23.8589 22.484 23.9143C22.6169 23.9696 22.7594 23.9981 22.9033 23.9981C23.0473 23.9981 23.1898 23.9696 23.3227 23.9143C23.4555 23.8589 23.5761 23.7778 23.6775 23.6756C23.7797 23.5743 23.8608 23.4537 23.9161 23.3208C23.9715 23.1879 24 23.0454 24 22.9015C24 22.7575 23.9715 22.615 23.9161 22.4822C23.8608 22.3493 23.7797 22.2287 23.6775 22.1273L13.5374 11.9981Z"/>
    </symbol>

    <symbol id="insta" width="40" height="40" viewBox="0 0 40 40"  xmlns="http://www.w3.org/2000/svg">
    <g clip-path="url(#clip0_1_117)">
    <path d="M7.91666 40H32.0834C36.4483 40 40 36.4483 40 32.0834V7.91666C40 3.55166 36.4483 0 32.0834 0H7.91666C3.55166 0 0 3.55166 0 7.91666V32.0834C0 36.4483 3.55166 40 7.91666 40ZM2.5 7.91666C2.5 4.93 4.93 2.5 7.91666 2.5H32.0834C35.07 2.5 37.5 4.93 37.5 7.91666V32.0834C37.5 35.07 35.07 37.5 32.0834 37.5H7.91666C4.93 37.5 2.5 35.07 2.5 32.0834V7.91666Z" fill="#726DA8"/>
    <path d="M20.0002 30.2167C25.6334 30.2167 30.2168 25.6334 30.2168 20.0001C30.2168 14.3667 25.6334 9.78336 20.0002 9.78336C14.3668 9.78336 9.78345 14.3667 9.78345 20.0001C9.78345 25.6334 14.3668 30.2167 20.0002 30.2167ZM20.0002 12.2834C24.2551 12.2834 27.7168 15.745 27.7168 20.0001C27.7168 24.255 24.2551 27.7167 20.0002 27.7167C15.7451 27.7167 12.2834 24.255 12.2834 20.0001C12.2834 15.745 15.7451 12.2834 20.0002 12.2834Z" fill="#726DA8"/>
    <path d="M30.5965 12.2698C32.2398 12.2698 33.4782 11.0366 33.4782 9.40152C33.4782 7.69654 32.1749 6.5332 30.5982 6.5332C28.9549 6.5332 27.7166 7.76654 27.7166 9.40152C27.7166 11.1032 29.0132 12.2698 30.5965 12.2698ZM30.8915 9.12656C31.4182 9.59152 30.2165 10.1566 30.2165 9.4032C30.2165 8.9532 30.8282 9.06984 30.8915 9.12656Z" fill="#726DA8"/>
    </g>
    <defs>
    <clipPath id="clip0_1_117">
    <rect width="40" height="40" fill="white"/>
    </clipPath>
    </defs>
    </symbol>

    <symbol id="pawprint" width="64" height="64" viewBox="0 0 64 64"  xmlns="http://www.w3.org/2000/svg">
    <g clip-path="url(#clip0_1_103)">
    <path d="M42.7978 33.9189C39.918 29.4263 35.0132 26.7437 29.6772 26.7437C24.3413 26.7437 19.4365 29.4263 16.5571 33.9189L9.61767 44.7446C8.4663 46.5405 7.93505 48.6157 8.08105 50.7441C8.22705 52.873 9.0371 54.8555 10.4233 56.4785C11.8105 58.1001 13.6435 59.2085 15.7241 59.6841C17.8047 60.1597 19.9375 59.9565 21.8916 59.0977L22.0225 59.0396C26.9394 56.9214 32.5581 56.9409 37.4624 59.0977C38.7275 59.6538 40.0679 59.9351 41.4204 59.9351C42.1558 59.9351 42.8955 59.8516 43.6284 59.6846C45.709 59.2095 47.542 58.1011 48.9297 56.479C50.3164 54.8574 51.1269 52.8745 51.2734 50.7451C51.4199 48.6157 50.8887 46.541 49.7373 44.7441L42.7978 33.9189Z" fill="#726DA8"/>
    <path d="M11.4869 33.9048C13.5513 33.1119 15.1197 31.4483 15.9029 29.2202C16.6485 27.1001 16.5875 24.7066 15.7305 22.48C14.8731 20.2549 13.3135 18.4385 11.3389 17.3648C9.2647 16.2373 6.98589 16.0537 4.92486 16.8482C0.778373 18.4424 -1.12446 23.5664 0.683646 28.273C2.12798 32.0191 5.49663 34.3838 8.9024 34.3838C9.77203 34.3838 10.6441 34.2295 11.4869 33.9048Z" fill="#726DA8"/>
    <path d="M24.9517 25.4233C30.1353 25.4233 34.3525 20.6187 34.3525 14.7129C34.3525 8.80566 30.1353 4 24.9517 4C19.7686 4 15.5518 8.80566 15.5518 14.7129C15.5518 20.6187 19.7686 25.4233 24.9517 25.4233Z" fill="#726DA8"/>
    <path d="M41.1871 28.0547H41.1876C41.985 28.3193 42.7984 28.4458 43.6085 28.4458C47.3888 28.4458 51.0729 25.6943 52.4786 21.4658C53.2882 19.0317 53.235 16.458 52.3287 14.2192C51.3805 11.8755 49.6232 10.1743 47.38 9.42871C45.1363 8.6831 42.7101 8.99414 40.5475 10.3037C38.4815 11.5547 36.8985 13.5845 36.0899 16.0186C34.3834 21.1533 36.67 26.5527 41.1871 28.0547Z" fill="#726DA8"/>
    <path d="M60.9843 26.8047L60.9828 26.8033C57.4081 24.1626 52.0619 25.3072 49.0643 29.356C46.0697 33.4068 46.538 38.8526 50.1073 41.4951C51.4091 42.4595 52.9472 42.9204 54.5214 42.9204C57.265 42.9204 60.1195 41.5201 62.0277 38.9449C65.0219 34.8941 64.5541 29.4483 60.9843 26.8047Z" fill="#726DA8"/>
    </g>
    <defs>
    <clipPath id="clip0_1_103">
    <rect width="64" height="64" fill="white"/>
    </clipPath>
    </defs>
    </symbol>

    <symbol id="pawprint-mini" width="39" height="34" viewBox="0 0 39 34" fill="none" xmlns="http://www.w3.org/2000/svg">
    <path d="M25.6787 18.3513C23.9508 15.6557 21.008 14.0461 17.8064 14.0461C14.6048 14.0461 11.662 15.6557 9.93431 18.3513L5.77065 24.8467C5.07983 25.9242 4.76108 27.1693 4.84868 28.4464C4.93628 29.7237 5.42231 30.9132 6.25403 31.887C7.08635 32.86 8.18615 33.525 9.43451 33.8104C10.6829 34.0957 11.9626 33.9738 13.135 33.4585L13.2135 33.4237C16.1637 32.1528 19.5349 32.1645 22.4775 33.4585C23.2366 33.7922 24.0408 33.961 24.8523 33.961C25.2935 33.961 25.7374 33.9109 26.1771 33.8107C27.4255 33.5256 28.5253 32.8606 29.3579 31.8873C30.1899 30.9144 30.6762 29.7246 30.7641 28.447C30.852 27.1693 30.5333 25.9245 29.8424 24.8464L25.6787 18.3513Z" fill="#726DA8"/>
    <path d="M6.89214 18.3428C8.13078 17.867 9.07182 16.8688 9.54174 15.532C9.9891 14.26 9.9525 12.8238 9.4383 11.4879C8.92386 10.1528 7.9881 9.06296 6.80334 8.41874C5.55882 7.7423 4.19153 7.63214 2.95492 8.10878C0.467024 9.0653 -0.674676 12.1398 0.410188 14.9637C1.27679 17.2113 3.29798 18.6302 5.34144 18.6302C5.86322 18.6302 6.38646 18.5376 6.89214 18.3428Z" fill="#726DA8"/>
    <path d="M14.971 13.2539C18.0812 13.2539 20.6115 10.3711 20.6115 6.82764C20.6115 3.2833 18.0812 0.399902 14.971 0.399902C11.8611 0.399902 9.33105 3.2833 9.33105 6.82764C9.33105 10.3711 11.8611 13.2539 14.971 13.2539Z" fill="#726DA8"/>
    <path d="M24.7121 14.8326H24.7124C25.1908 14.9914 25.6789 15.0673 26.1649 15.0673C28.4331 15.0673 30.6435 13.4164 31.487 10.8793C31.9727 9.41883 31.9408 7.87461 31.397 6.53133C30.8281 5.12511 29.7737 4.10439 28.4278 3.65701C27.0816 3.20965 25.6258 3.39627 24.3283 4.18203C23.0887 4.93263 22.1389 6.15044 21.6538 7.61091C20.6299 10.6918 22.0018 13.9314 24.7121 14.8326Z" fill="#726DA8"/>
    <path d="M36.5906 14.0827L36.5897 14.0818C34.4449 12.4974 31.2372 13.1841 29.4387 15.6134C27.6419 18.0439 27.9228 21.3114 30.0644 22.8969C30.8455 23.4755 31.7684 23.7521 32.7129 23.7521C34.359 23.7521 36.0717 22.9119 37.2167 21.3667C39.0132 18.9363 38.7325 15.6688 36.5906 14.0827Z" fill="#726DA8"/>
    </symbol>

    <symbol id="telegram" width="40" height="40" viewBox="0 0 40 40"  xmlns="http://www.w3.org/2000/svg">
    <g clip-path="url(#clip0_1_121)">
    <path d="M0.691767 18.66L10.4734 23.535C10.8518 23.7216 11.2984 23.7083 11.6601 23.4966L20.3668 18.435L15.0968 23.105C14.8284 23.3433 14.6751 23.6833 14.6751 24.0416V35.4166C14.6751 36.6166 16.2068 37.1216 16.9251 36.1683L21.1534 30.5466L31.6101 36.5016C32.3434 36.9233 33.2834 36.5 33.4534 35.6616L39.9751 3.16163C40.1701 2.18496 39.1984 1.38829 38.2951 1.75163L0.795101 16.3766C-0.211566 16.77 -0.276566 18.1783 0.691767 18.66ZM37.0751 4.91163L31.3434 33.4733L21.4351 27.83C20.8951 27.5216 20.2001 27.6583 19.8168 28.165L17.1751 31.6766V24.6033L31.4268 11.9766C32.5551 10.9783 31.2584 9.20329 29.9701 9.95996L10.9868 20.9966L4.33343 17.6816L37.0751 4.91163Z" fill="#726DA8"/>
    </g>
    <defs>
    <clipPath id="clip0_1_121">
    <rect width="40" height="40" fill="white"/>
    </clipPath>
    </defs>
    </symbol>

    <symbol id="vk" width="40" height="40" viewBox="0 0 40 40"  xmlns="http://www.w3.org/2000/svg">
    <g clip-path="url(#clip0_1_123)">
    <path d="M20.2417 32.5C26.0283 32.5 23.965 28.8366 24.4117 27.7834C24.405 26.9966 24.3983 26.24 24.425 25.78C24.7917 25.8834 25.6566 26.3217 27.4434 28.0583C30.2017 30.8417 30.9066 32.5 33.135 32.5H37.2366C38.5366 32.5 39.2134 31.9617 39.5517 31.51C39.8783 31.0734 40.1983 30.3066 39.8483 29.1134C38.9334 26.24 33.5966 21.2783 33.265 20.755C33.315 20.6583 33.395 20.53 33.4366 20.4634H33.4334C34.4866 19.0717 38.5066 13.0483 39.0983 10.6383C39.1 10.635 39.1017 10.63 39.1017 10.625C39.4217 9.52496 39.1283 8.81168 38.825 8.40832C38.3683 7.805 37.6417 7.5 36.66 7.5H32.5583C31.185 7.5 30.1434 8.19168 29.6166 9.45336C28.735 11.695 26.2583 16.305 24.4017 17.9366C24.345 15.625 24.3834 13.86 24.4134 12.5483C24.4734 9.99 24.6666 7.5 22.0117 7.5H15.565C13.9017 7.5 12.31 9.31664 14.0334 11.4734C15.54 13.3634 14.575 14.4166 14.9 19.66C13.6334 18.3017 11.38 14.6334 9.78664 9.94496C9.34 8.67664 8.66336 7.50166 6.75834 7.50166H2.65666C0.993336 7.50166 0 8.40832 0 9.92664C0 13.3366 7.54834 32.5 20.2417 32.5ZM6.75834 10.0017C7.12 10.0017 7.15666 10.0017 7.425 10.7634C9.05664 15.5683 12.7166 22.6783 15.39 22.6783C17.3983 22.6783 17.3983 20.62 17.3983 19.845L17.3966 13.675C17.2866 11.6334 16.5434 10.6166 16.055 10L21.9017 10.0066C21.905 10.035 21.8683 16.8317 21.9183 18.4783C21.9183 20.8166 23.775 22.1566 26.6734 19.2234C29.7317 15.7717 31.8466 10.6117 31.9317 10.4017C32.0566 10.1017 32.165 10 32.5583 10H36.66H36.6766C36.675 10.005 36.675 10.01 36.6734 10.015C36.2983 11.765 32.5966 17.3417 31.3583 19.0734C31.3383 19.1 31.32 19.1283 31.3017 19.1566C30.7566 20.0466 30.3134 21.03 31.3766 22.4134H31.3783C31.475 22.53 31.7266 22.8034 32.0934 23.1834C33.2334 24.36 37.1434 28.3834 37.49 29.9834C37.26 30.02 37.01 29.9934 33.135 30.0017C32.31 30.0017 31.665 28.7683 29.2034 26.285C26.99 24.1317 25.5534 23.2517 24.245 23.2517C21.705 23.2517 21.89 25.3134 21.9134 27.8066C21.9217 30.51 21.905 29.655 21.9234 29.825C21.775 29.8834 21.35 30 20.2417 30C9.66664 30 2.78 13.215 2.515 10.0066C2.60666 9.99832 3.86834 10.0034 6.75834 10.0017Z" fill="#726DA8"/>
    </g>
    <defs>
    <clipPath id="clip0_1_123">
    <rect width="40" height="40" fill="white"/>
    </clipPath>
    </defs>
    </symbol>

    <symbol id="menu" width="32" height="22" viewBox="0 0 32 22" fill="none" xmlns="http://www.w3.org/2000/svg">
    <path d="M31 12H1C0.734784 12 0.48043 11.8946 0.292893 11.7071C0.105357 11.5196 0 11.2652 0 11C0 10.7348 0.105357 10.4804 0.292893 10.2929C0.48043 10.1054 0.734784 10 1 10H31C31.2652 10 31.5196 10.1054 31.7071 10.2929C31.8946 10.4804 32 10.7348 32 11C32 11.2652 31.8946 11.5196 31.7071 11.7071C31.5196 11.8946 31.2652 12 31 12ZM21 2H1C0.734784 2 0.48043 1.89464 0.292893 1.70711C0.105357 1.51957 0 1.26522 0 1C0 0.734784 0.105357 0.48043 0.292893 0.292893C0.48043 0.105357 0.734784 0 1 0H21C21.2652 0 21.5196 0.105357 21.7071 0.292893C21.8946 0.48043 22 0.734784 22 1C22 1.26522 21.8946 1.51957 21.7071 1.70711C21.5196 1.89464 21.2652 2 21 2ZM27 22H1C0.734784 22 0.48043 21.8946 0.292893 21.7071C0.105357 21.5196 0 21.2652 0 21C0 20.7348 0.105357 20.4804 0.292893 20.2929C0.48043 20.1054 0.734784 20 1 20H27C27.2652 20 27.5196 20.1054 27.7071 20.2929C27.8946 20.4804 28 20.7348 28 21C28 21.2652 27.8946 21.5196 27.7071 21.7071C27.5196 21.8946 27.2652 22 27 22Z" fill="#726DA8"/>
    </symbol>
</svg>